<svg viewBox="0 0 40 40" fill="none" xmlns="http://www.w3.org/2000/svg">
<path d="M5.90001 32.6L5.70001 32.4L5.80001 32.2C6.20001 31.8 16.2 18.8 22.6 10.4C23.9 8.7 25 7.2 25.8 6.1C26.7 4.9 27.3 4.1 27.6 3.6C28.2 2.9 28.6 2.3 29 1.8C29.3 1.4 29.5 1.1 29.6 1H29.9L30.1 1.1L32.1 2.4L32.5 2.6L34.4 3.9L34.6 4L34.5 4.2C33.6 5.6 25.9 15.4 20 22.9C16.8 26.9 14.3 30.2 13.6 31C13.9 31.1 14.2 31.3 14.5 31.4H14.6C15.8 31.9 16.9 32.2 18.2 32.4C19.4 32.6 20.6 32.7 21.9 32.7H22.2C24.1 32.7 25.9 32.5 27.6 32C27.9 31.9 28.3 31.8 28.6 31.7C28.9 31.6 29.2 31.5 29.5 31.4C29.9 31.3 30.2 31.1 30.6 31C30.9 30.9 31.3 30.7 31.6 30.5C31.9 30.4 32.1 30.2 32.3 30.1C32.5 30 32.8 29.8 33 29.7C33.1 29.6 33.3 29.5 33.4 29.4C33.8 29.2 34.1 28.9 34.4 28.7L34.6 28.5L34.8 28.7L36.4 30.7L37.9 32.6L38 32.8L37.8 33C36.1 34.5 34 35.6 31.7 36.5C31.3 36.7 30.8 36.8 30.3 37C27.5 37.9 24.5 38.4 22 38.4H21.8C17.7 38.4 13.6 37.2 9.90001 35.2C9.20001 34.8 8.50001 34.4 7.80001 33.9C7.20001 33.6 6.60001 33.1 5.90001 32.6Z" fill="#1E1E1C"/>
<path d="M34.7 29.1C34.3 29.4 33.7 29.8 33.3 30.1C32.8 30.4 32.3 30.7 31.8 31C31.1 31.3 30.4 31.7 29.7 31.9C27.5 32.7 24.9 33.2 22.2 33.2C19.3 33.2 16.9 32.8 14.5 31.8C14.1 31.6 13.7 31.4 13.2 31.2C13.1 31.2 32.8 6.4 34.2 4.2L34 4L32.3 2.9L31.9 2.7L29.9 1.4C29.8 1.6 29.1 2.5 28 4C25.8 7.1 6.59998 31.9 6.09998 32.5C6.69998 32.3 7.39997 32 7.99997 31.8C9.99997 32.5 11.3 33.5 12.9 34.1C16.6 35.5 19.3 36.1 22.2 36.1C24.8 36.1 27.7 35.6 31.5 33.8C33.1 33 34.5 32.1 36.4 31.1L34.7 29.1Z" fill="url(#paint0_linear_182_4)"/>
<path d="M6.09998 32.5C10.6 36.2 16.3 38.4 22.1 38.4C27.2 38.4 33.8 36.5 37.8 33L36.3 31.1C34.4 32.1 33 33 31.4 33.8C27.6 35.6 24.8 36 22.1 36.1C19.2 36.1 16.5 35.5 12.8 34.1C11.2 33.5 9.89997 32.5 7.89997 31.8C7.39997 32 6.69998 32.2 6.09998 32.5Z" fill="url(#paint1_linear_182_4)"/>
<path d="M24.8 35.7C24 35.8 23.1 35.8 22.2 35.8C18.5 35.8 14.8 34.6 11.6 32.8C10.5 32.1 10.2 31.8 11.9 31.3C12.2 31.2 12.5 31.1 12.8 31.1C12.9 31.1 12.9 31.1 13 31.1H13.1C13.4 31.3 14.2 31.6 14.4 31.7C15.8 32.3 19.5 33.2 22.3 33.2C25.9 33.2 29.2 32.4 31.9 31C32.4 30.8 32.8 30.5 33.2 30.2L33.3 30.1C33.7 29.8 34.1 29.6 34.4 29.3C34.6 29.2 34.6 29.1 34.7 29.2C35.2 29.7 35.5 30.4 35.9 31L36.1 31.1C36.5 31.6 37 32.1 37.5 32.6C37.7 32.8 37.8 32.8 37.5 33.1C37 33.5 36.5 33.8 36 34.2C35.4 34.6 34.8 35 34.1 35.3C32.1 36.3 29.8 37.1 27.4 37.6C30.4 37 33.7 35.7 36.3 33.9C37.2 33.2 37.4 33 37.1 32.6C37 32.4 35.9 31.3 35.9 31.3C32 33.9 28.2 35.2 24.8 35.7Z" fill="url(#paint2_radial_182_4)"/>
<path d="M4.6 30.9C4.3 30.6 4.1 30.3 3.8 29.9C3.6 29.6 3.3 29.2 3.1 28.9C2 27.1 1.3 25.2 1.1 23.1C1.1 22.7 1 22.3 1 21.9C1 21.5 1 21.1 1 20.7C1 20.1 1.1 19.5 1.3 18.9C1.4 18.3 1.6 17.7 1.8 17.2C2.8 14.4 4.8 11.8 7.5 9.9C8 9.5 8.6 9.1 9.2 8.8C9.8 8.4 10.4 8.1 11 7.8C14.1 6.3 17.7 5.4 21.6 5.3C22.1 5.3 22.5 5.3 23 5.3C23.1 5.3 23.2 5.3 23.3 5.3H23.5C23.8 5.3 24 5.3 24.3 5.3H24.7L24.4 5.7C23.5 6.9 22.5 8.2 21.6 9.4L20.7 10.5L20.6 10.6H20.5C20 10.6 19.4 10.7 18.9 10.8C18.4 10.9 17.9 11 17.4 11.1C14.8 11.7 12.6 12.7 10.7 14.1C10.4 14.3 10.1 14.6 9.8 14.9C9.5 15.2 9.2 15.4 9 15.7C7.7 17.1 6.8 18.8 6.5 20.6V20.7C6.5 20.8 6.5 20.9 6.5 21C6.5 21.1 6.5 21.2 6.5 21.3C6.5 21.8 6.5 22.3 6.6 22.8C6.6 23 6.7 23.2 6.7 23.4C6.7 23.6 6.8 23.8 6.8 24C7.1 25 7.5 25.9 8.2 26.7L8.3 26.8L8.2 26.9L5.2 30.8L5 31L4.6 30.9Z" fill="#1E1E1C"/>
<path d="M4.80001 30.7C2.90001 28.5 1.70001 25.9 1.40001 23.1C1.30001 22.2 1.30001 21.5 1.40001 20.7C1.70001 16.5 4.10001 12.8 7.80001 10C11.6 7.2 16.8 5.5 22.5 5.5C23.2 5.5 23.8 5.5 24.4 5.6C23.2 7.2 21.9 8.8 20.7 10.4C16.8 10.7 13.3 12 10.7 13.9C8.30001 15.7 6.70001 18 6.30001 20.5C6.20001 21.2 6.20001 22.1 6.30001 22.8C6.50001 24.2 7.10001 25.6 8.00001 26.8L4.80001 30.7Z" fill="#838382"/>
<path d="M4.29999 30C4.69999 30.5 4.69999 30.7 5.09999 30.2L6.09999 29C1.39999 22.8 3.59999 15.8 9.79999 11.7C13 9.5 17 8 22.5 7.9C23.1 7.2 23.5 6.6 23.7 6.5C24.3 5.8 24.3 5.8 23.4 5.8C16.9 5.7 9.99999 7.5 5.39999 12.5C3.69999 14.3 2.39999 16.4 1.79999 18.9C0.89999 22.3 1.39999 26.4 4.29999 30Z" fill="url(#paint3_radial_182_4)"/>
<path d="M6.09997 28.9C6.69997 28.1 7.49997 27.2 7.59997 27C7.79997 26.8 7.79997 26.8 7.59997 26.6C5.99997 24.7 4.49997 19.3 9.09997 15C10.3 13.9 11.4 13.2 12.5 12.6C14.8 11.3 16.9 10.8 20 10.3C20.4 10.2 20.6 10.3 20.8 10C21 9.8 21.8 8.8 22.5 7.9C17 8 13 9.5 9.79997 11.6C3.59997 15.7 1.29997 22.7 6.09997 28.9Z" fill="#B3B3B2"/>
<path d="M6.1 24.3C5 20.8 6.4 17.2 9.1 14.8C11.2 12.9 14.2 11.3 16.9 10.6C19.5 9.9 20 8.1 22.4 7.7C19 7.7 15.3 8.4 12.1 10C7 12.4 3.6 16.6 3.5 21.4C3.5 22.7 3.7 24.1 4.1 25.3C4.6 26.6 5.2 27.8 6.1 28.9C5.5 28.1 5 27.3 4.6 26.4C5 27.2 5.5 28 6.1 28.8C6 28.7 6 28.7 6 28.6C5.7 27.1 6.7 26.3 6.1 24.3Z" fill="url(#paint4_radial_182_4)"/>
<path d="M4.50003 26.1C4.50003 26 4.40003 25.9 4.40003 25.9C3.80003 24.5 3.60003 23.1 3.70003 21.6C3.90003 17.4 6.10003 14.1 10.2 11.6C10 11.7 9.90003 11.8 9.70003 11.9C7.60003 13.4 5.70003 15.1 4.70003 17.5C3.50003 20.3 3.30003 23.2 4.50003 26.1Z" fill="white"/>
<path fill-rule="evenodd" clip-rule="evenodd" d="M12.4 28.6C14.9 25.4 17.4 22.1 20 18.8C23.2 14.6 26.4 10.3 29.7 5.9C26.4 10.2 23.2 14.5 19.9 18.7C17.4 22 14.9 25.3 12.4 28.6Z" fill="white"/>
<path fill-rule="evenodd" clip-rule="evenodd" d="M20.9 35.9C25.2 36.1 29.8 35 33.4 32.6C31.4 33.7 29.5 34.5 27.3 35.1C25.3 35.7 23.1 36 20.9 35.9Z" fill="white"/>
<path d="M13.2 31.2C13.6 31.4 14.3 31.7 14.4 31.7C15.8 32.3 19.5 33.2 22.3 33.2C25.9 33.2 29.2 32.4 31.9 31C32.4 30.8 32.8 30.5 33.2 30.2L33.3 30.1C33.7 29.8 34.1 29.6 34.4 29.3C34.5 29.2 34.6 29.2 34.6 29.2C26.7 37.9 15.5 33.3 13.2 31.2Z" fill="#F6F6F5"/>
<path fill-rule="evenodd" clip-rule="evenodd" d="M20.8 9.9L22.2 7.8L22.5 7.7L20.8 9.9Z" fill="#232322"/>
<path fill-rule="evenodd" clip-rule="evenodd" d="M23.9 6L22.5 7.7L22.2 7.8L23.9 6Z" fill="#6C6B6B"/>
<path fill-rule="evenodd" clip-rule="evenodd" d="M5 30.3L6 28.8L6.1 29L5 30.3Z" fill="#F0F0F0"/>
<path fill-rule="evenodd" clip-rule="evenodd" d="M7.6 27L6.1 29L6 28.8L7.6 27Z" fill="#4B4A4A"/>
<path d="M13 31.1C19.8 22.4 26.55 13.7 33.25 5.1C34 4 33.25 5.1 34 4C33.5 3.5 32.38 3.22 31.78 2.92C24.38 12.42 17.9 21.6 10.2 30.9C9.1 32.2 10 32.5 11.4 33.3C12.5 33.9 13.8 34.4 15 34.8C17.9 35.7 21.1 36.1 24.1 35.8C20 36.3 16.4 35.5 13.8 34.6C13.4 34.5 13.1 34.3 12.7 34.2C11.9 33.8 11 33.4 10.2 33C9.4 32.6 8.6 32.2 7.7 32.3C7.3 32.4 7 32.6 7.6 33.1C8.4 33.9 10.5 35.1 10.8 35.2C13.2 36.5 15.8 37.4 18.6 37.8C14.5 37.3 10.8 35.8 7.9 33.7C7.4 33.3 6.9 32.9 6.4 32.5C6.2 32.3 6.2 32.4 6.3 32.1C16.9 18.5 26.3 6.5 28 4C28.8 2.9 29.4 2.1 29.7 1.7C29.9 1.4 30 1.5 30 1.5C31.1 2.2 32.4594 3.03948 33.6594 3.73948C34.0594 4.03948 34 4 33.6 4.5L13.1 31.1H13Z" fill="url(#paint5_linear_182_4)"/>
<path fill-rule="evenodd" clip-rule="evenodd" d="M7.20003 32.2C7.80003 31.9 8.30003 32 8.70003 32C9.40003 32.1 9.70003 32.4 9.60003 32C9.60003 31.9 9.60003 31.5 9.80003 31.2C10.1 30.8 10.6 30.2 11.2 29.5C12.6 27.9 16.9 22.6 16.7 22.8C16 23.4 15.1 24.4 14 25.3C11.7 27.1 10.9 26.9 10.2 27.6C9.70003 28.3 7.00003 31.4 6.50003 32.2C6.20003 32.5 6.40003 32.5 7.20003 32.2Z" fill="url(#paint6_linear_182_4)"/>
<path fill-rule="evenodd" clip-rule="evenodd" d="M30.45 1.75L31.7905 2.92176L32.0007 2.7325L30.45 1.75Z" fill="#6C6B6B"/>
<path fill-rule="evenodd" clip-rule="evenodd" d="M33.48 3.63L31.9564 2.70882L31.7822 2.9317L33.48 3.63Z" fill="#6C6B6B"/>
<defs>
<linearGradient id="paint0_linear_182_4" x1="11.9315" y1="34.2693" x2="44.1815" y2="6.8798" gradientUnits="userSpaceOnUse">
<stop stop-color="#1E1E1C"/>
<stop offset="1" stop-color="#9D9D9C"/>
</linearGradient>
<linearGradient id="paint1_linear_182_4" x1="6.09178" y1="34.7371" x2="41.7085" y2="34.7371" gradientUnits="userSpaceOnUse">
<stop stop-color="#1E1E1C"/>
<stop offset="1" stop-color="#D0D0D0"/>
</linearGradient>
<radialGradient id="paint2_radial_182_4" cx="0" cy="0" r="1" gradientUnits="userSpaceOnUse" gradientTransform="translate(32.0259 29.3302) scale(21.7936 21.7936)">
<stop stop-color="#F6F6F5"/>
<stop offset="1" stop-color="#646463"/>
</radialGradient>
<radialGradient id="paint3_radial_182_4" cx="0" cy="0" r="1" gradientUnits="userSpaceOnUse" gradientTransform="translate(13.6602 7.2514) scale(27.0431)">
<stop stop-color="#F6F6F5"/>
<stop offset="0.7101" stop-color="#C2C1C1"/>
<stop offset="0.9134" stop-color="#646463"/>
</radialGradient>
<radialGradient id="paint4_radial_182_4" cx="0" cy="0" r="1" gradientUnits="userSpaceOnUse" gradientTransform="translate(6.4395 13.7578) scale(19.0392)">
<stop stop-color="#1E1E1C"/>
<stop offset="0.7337" stop-color="#9D9D9C"/>
</radialGradient>
<linearGradient id="paint5_linear_182_4" x1="37.6341" y1="4.65469" x2="10.7273" y2="39.9158" gradientUnits="userSpaceOnUse">
<stop stop-color="#F6F6F5"/>
<stop offset="0.8475" stop-color="#D0D0D0"/>
<stop offset="0.9979" stop-color="#646463"/>
</linearGradient>
<linearGradient id="paint6_linear_182_4" x1="16.9796" y1="22.7909" x2="6.87273" y2="32.8139" gradientUnits="userSpaceOnUse">
<stop offset="0.00292141" stop-color="#D0D0D0"/>
<stop offset="1" stop-color="#646463"/>
</linearGradient>
</defs>
</svg>
